<?xml version="1.0" encoding="utf-8"?>
<!-- Svg Vector Icons : http://www.onlinewebfonts.com/icon -->
<!DOCTYPE svg PUBLIC "-//W3C//DTD SVG 1.1//EN" "http://www.w3.org/Graphics/SVG/1.1/DTD/svg11.dtd">
<svg version="1.1" xmlns="http://www.w3.org/2000/svg" xmlns:xlink="http://www.w3.org/1999/xlink" x="0px" y="0px" viewBox="0 0 256 256" enable-background="new 0 0 256 256" xml:space="preserve">
<metadata> Svg Vector Icons : http://www.onlinewebfonts.com/icon </metadata>
<g><g><path fill="#000000" d="M76.5,200.2c3.5,1.5,5.5,5,8.1,7.6c2.9,2.9,6.7,5.2,10.2,7.3c14,8.4,31.6,12.7,47.9,9.7c14.4-2.7,28.4-10.2,38.7-20.5c12-12,15.6-33.9,14.8-49.5c-0.9-17.6-8.1-39.6-18.9-46.4c-10.6,25.2-34.9,36.8-60.4,43.6c-6.5,1.7-13.1,3-19.8,3.5c-1.4,0.1-2.6,0.4-3.9,0.2c20.2-17.7,37.3-45.2,38.5-72.8c0.6-14.3,1.9-32.8-24-46.1c-0.9,30.6-12.7,54.6-30.3,72.8c-12.7,13.1-18.9,32-17.4,50.1c0.4,5.5,2.4,11,3.1,16.6c0.4,3.1,0.8,6.8-0.8,9.6c-2.2,3.8-8.6,5.1-12.6,3.7c-1.6-0.6-4-2.4-4.4-4.2c-5.8-25.1-7.4-58.3,13.6-80c22-22.8,32.6-57,33.7-95.3c12.4,1.7,46.1,28,53.8,49.3c7,19.2-0.8,58.6-11.1,68.1c24.5-14,30.8-36.2,34.3-51.5c25.5,17.3,46.4,51.9,44.7,87c-0.4,8.2-0.7,15-3.1,24.3c-2.2,8.7-9.1,22.2-15.2,29.4c-7.1,8.3-14.9,15.4-24.8,20.2c-14,6.8-29.7,9.7-45.2,9.2c-4.2-0.1-8.4-0.6-12.6-1.3c-22.2-3.8-32.4-11.8-35.3-13.6c-4.6-2.9-9.4-8.4-13-12.5C56.9,209.2,64,194.6,76.5,200.2z"/></g></g>
</svg>