<?xml version="1.0" encoding="utf-8"?>
<!-- Svg Vector Icons : http://www.onlinewebfonts.com/icon -->
<!DOCTYPE svg PUBLIC "-//W3C//DTD SVG 1.1//EN" "http://www.w3.org/Graphics/SVG/1.1/DTD/svg11.dtd">
<svg version="1.1" xmlns="http://www.w3.org/2000/svg" xmlns:xlink="http://www.w3.org/1999/xlink" x="0px" y="0px" viewBox="0 0 256 256" enable-background="new 0 0 256 256" xml:space="preserve">
<metadata> Svg Vector Icons : http://www.onlinewebfonts.com/icon </metadata>
<g><g><path fill="#000000" d="M68.9,143.2L68.9,143.2c-5.1,0-8.4-3.4-8.4-8.4v-33.7c0-5.1,3.4-8.4,8.4-8.4l0,0c5.1,0,8.4,3.4,8.4,8.4v33.7C77.4,139.9,74,143.2,68.9,143.2z"/><path fill="#000000" d="M43.7,118L43.7,118c0-5.1,3.4-8.4,8.4-8.4h33.7c5.1,0,8.4,3.4,8.4,8.4l0,0c0,5.1-3.4,8.4-8.4,8.4H52.1C47.1,126.4,43.7,123,43.7,118z"/><path fill="#000000" d="M178.4,101.1c0,8.4,6.8,15.1,15.1,15.1c8.4,0,15.1-6.8,15.1-15.1c0-8.4-6.8-15.1-15.1-15.1S178.4,92.8,178.4,101.1L178.4,101.1z"/><path fill="#000000" d="M154.8,129.8c0,8.4,6.8,15.1,15.1,15.1c8.4,0,15.1-6.8,15.1-15.1c0-8.4-6.8-15.1-15.1-15.1S154.8,121.4,154.8,129.8z"/><path fill="#000000" d="M242.4,119.7c-10.1-48.8-35.4-82.5-62.3-79.2c-8.4,1.7-18.5,15.1-20.2,16.8H111c-5.1,0-8.4,3.4-8.4,8.4s3.4,8.4,8.4,8.4h50.5c11.8,0,13.5-13.5,21.9-16.8c11.8-5.1,33.7,25.3,42.1,65.7c8.4,40.4-1.7,74.1-15.1,75.8c-11.8,1.7-33.7-37-33.7-37c-1.7-1.7-3.4-3.4-6.7-3.4H85.8c-3.4,0-5.1,1.7-6.7,3.4c0,0-21.9,38.7-33.7,37c-13.5-1.7-23.6-35.4-15.1-75.8c6.7-40.4,28.6-70.7,42.1-65.7c1.7,0,6.7,8.4,6.7,8.4c1.7,1.7,3.4,3.4,6.7,3.4c5.1,0,8.4-3.4,8.4-8.4c0-1.7-1.7-5.1-3.4-6.7c-1.7-3.4-8.4-11.8-16.8-13.5c-25.3-5.1-52.2,28.6-60.6,79.1c-10.1,50.5,3.4,90.9,28.6,96c18.5,3.4,35.4-21.9,48.8-40.4h75.8c11.8,18.5,28.6,43.8,48.8,40.4C240.7,210.6,252.5,168.5,242.4,119.7z"/></g></g>
</svg>