<?xml version="1.0" encoding="utf-8"?>
<!-- Svg Vector Icons : http://www.onlinewebfonts.com/icon -->
<!DOCTYPE svg PUBLIC "-//W3C//DTD SVG 1.1//EN" "http://www.w3.org/Graphics/SVG/1.1/DTD/svg11.dtd">
<svg version="1.1" xmlns="http://www.w3.org/2000/svg" xmlns:xlink="http://www.w3.org/1999/xlink" x="0px" y="0px" viewBox="0 0 256 256" enable-background="new 0 0 256 256" xml:space="preserve">
<metadata> Svg Vector Icons : http://www.onlinewebfonts.com/icon </metadata>
<g><g><g><path fill="#000000" d="M168.6,17.6c-39.2,5.1-58.6,7.9-61.2,8.7C99.5,28.8,91,36.1,87,43.8c-3.1,6-4,9.7-4,17.4c-0.1,5.9,0.1,7.1,1.1,8.8c3.3,5.5,12,5.6,15.2,0.1c0.8-1.5,1.2-3.5,1.5-9c0.3-4.8,0.7-7.9,1.4-9.6c1.2-3,5.3-6.6,8.7-7.7c1.5-0.5,23.3-3.6,48.5-6.8c25.2-3.3,46.8-6.1,48-6.3l2.1-0.3v52v52l-4-1.9c-2.7-1.3-5.8-2.3-9.3-2.8c-4.9-0.8-5.7-0.8-10.2,0.1c-15,2.9-27,14.9-29.9,29.9c-0.9,4.5-0.9,5.4-0.1,10.2c2.4,14.4,14.1,27,28.2,30.4c4,1,10.7,1,14.7,0c10.3-2.5,20.4-10.7,25.2-20.7c3.8-8,3.7-4.2,3.7-91.1c0-62.3-0.2-78.3-0.7-78.3C226.4,10.1,200.2,13.5,168.6,17.6z M200.6,148.8c6.2,3.2,9,8.9,8.6,17.5c-0.6,11.2-7.6,17.1-19.5,16.5c-11.2-0.6-17.1-7.6-16.5-19.5c0.6-11.1,7.2-16.9,18.9-16.5C196.6,147.1,197.9,147.4,200.6,148.8z"/><path fill="#000000" d="M142,80.8c-21.8,2.8-32.3,4.4-35.8,5.8C96,90.4,87.7,99.4,84,110.6c-0.9,2.8-1,6.1-1.2,35.9l-0.2,32.9l-4-1.9c-5.5-2.7-12.4-3.8-17.9-3c-8.7,1.3-14.6,4.4-21.1,10.8c-6.4,6.5-9.5,12.4-10.8,21.1c-2.4,16.3,11,34.8,28.3,38.9c4,1,10.7,1,14.7,0c10.1-2.4,20.2-10.6,24.9-20.1c3.7-7.6,3.5-4.5,3.8-60.8l0.3-51.2l1.6-3c3.1-5.5,6.6-7,19.7-8.8c10.5-1.5,11.1-1.5,22.2-2.9c4-0.5,8.1-1.3,9.2-1.8c4.2-2,5.9-7.7,3.6-11.9C154.8,80.4,151.8,79.6,142,80.8z M73.9,194.1c6.2,3.2,9,8.9,8.6,17.5c-0.6,11.2-7.6,17.1-19.5,16.5c-11.2-0.6-17.1-7.6-16.5-19.5c0.6-11.1,7.2-16.9,18.9-16.5C69.9,192.3,71.2,192.6,73.9,194.1z"/></g></g></g>
</svg>