<?xml version="1.0" encoding="utf-8"?>
<!-- Generator: Adobe Illustrator 26.0.1, SVG Export Plug-In . SVG Version: 6.00 Build 0)  -->
<svg version="1.1" id="Layer_1" xmlns="http://www.w3.org/2000/svg" xmlns:xlink="http://www.w3.org/1999/xlink" x="0px" y="0px"
	 viewBox="0 0 595.3 581.9" style="enable-background:new 0 0 595.3 581.9;" xml:space="preserve">
<path d="M297.5,550c-143,0-258.3-115.6-258.5-258.6c-0.2-142.6,116.4-259,259.6-258.5c142.2,0.5,257.5,116.1,257.4,259
	C556.1,434.6,440.5,550,297.5,550z M529.3,291.5c0-127.6-103.9-231.6-231.4-231.7C170.2,59.8,66.1,163.5,66,290.9
	C65.9,419,169.7,523.1,297.5,523.1C425.3,523.2,529.3,419.3,529.3,291.5z"/>
<path d="M236.4,305.2c-19.1,20.6-38,40.9-56.9,61.3c0.1,0.2,0.2,0.3,0.3,0.5c5.1-1.7,10.1-3.4,15.2-5.1c16-5.4,32.1-10.8,48.1-16.2
	c8.2-2.7,15.6,0.6,18.2,8c2.6,7.5-1.3,14.8-9.4,17.5c-38.1,12.8-76.2,25.7-114.3,38.5c-6.5,2.2-12.8,0.2-16.3-5
	c-3.6-5.4-3-12,1.8-17.2c33.2-35.8,66.4-71.5,99.5-107.3c9.6-10.4,19.1-20.9,28.9-31.1c16.7-17.4,37.2-23.9,60.6-18.3
	c23.5,5.6,38.6,21,45.8,44.1c0.3,0.9,0.6,1.8,0.9,3c19.1-20.6,38-41,56.8-61.4c-0.1-0.2-0.2-0.4-0.3-0.6c-3.7,1.2-7.5,2.4-11.2,3.7
	c-17.4,5.8-34.7,11.7-52.1,17.5c-8.2,2.8-15.6-0.5-18.2-8c-2.6-7.5,1.3-14.8,9.4-17.5c38.1-12.8,76.2-25.7,114.3-38.5
	c6.6-2.2,12.8-0.2,16.3,5c3.6,5.4,3,12-1.8,17.2c-23.6,25.5-47.2,51-70.7,76.5c-17.9,19.4-35.9,38.7-53.7,58.1
	c-10.3,11.2-22.1,19.5-37.2,22.7c-32.2,6.7-64.3-12.8-73.1-44.6C237.1,307.3,236.8,306.5,236.4,305.2z M333.2,291.4
	c-0.1-19.4-16.2-35.5-35.6-35.5c-19.3,0-35.5,16.1-35.6,35.5c-0.1,19.4,16.3,35.8,35.7,35.7C317.2,326.9,333.3,310.7,333.2,291.4z"
	/>
<path d="M126,305.1c-7.8,0-15.6,0-23.3,0c-8.5,0-14.7-5.7-14.7-13.5c0-7.8,6.2-13.6,14.6-13.6c15.7,0,31.3,0,47,0
	c8.5,0,14.5,5.7,14.4,13.7c0,7.8-6,13.4-14.3,13.5C141.8,305.1,133.9,305.1,126,305.1z"/>
<path d="M469,305.1c-7.8,0-15.6,0-23.3,0c-8.5,0-14.5-5.7-14.4-13.7c0-7.8,6-13.5,14.3-13.5c15.8,0,31.6,0,47.3,0
	c8.2,0,14.4,5.8,14.4,13.5c0.1,7.8-6.2,13.6-14.6,13.7C484.8,305.1,476.9,305.1,469,305.1z"/>
<path d="M284,463.2c0-7.9,0-15.8,0-23.7c0-8.5,5.7-14.5,13.6-14.5c7.9,0,13.5,6.1,13.5,14.6c0,15.6,0,31.1,0,46.7
	c0,8.5-5.7,14.7-13.5,14.7c-7.9,0.1-13.6-6.2-13.7-14.9C284,478.6,284,470.9,284,463.2z"/>
<path d="M284,119.9c0-7.8,0-15.6,0-23.3c0-8.5,5.7-14.7,13.5-14.7c7.8,0,13.6,6.2,13.6,14.6c0,15.7,0,31.3,0,47
	c0,8.5-5.7,14.5-13.7,14.4c-7.8,0-13.4-6-13.5-14.3C284,135.7,284,127.8,284,119.9z"/>
</svg>
