<?xml version="1.0" encoding="utf-8"?>
<!-- Svg Vector Icons : http://www.onlinewebfonts.com/icon -->
<!DOCTYPE svg PUBLIC "-//W3C//DTD SVG 1.1//EN" "http://www.w3.org/Graphics/SVG/1.1/DTD/svg11.dtd">
<svg version="1.1" xmlns="http://www.w3.org/2000/svg" xmlns:xlink="http://www.w3.org/1999/xlink" x="0px" y="0px" viewBox="0 0 256 256" enable-background="new 0 0 256 256" xml:space="preserve">
<metadata> Svg Vector Icons : http://www.onlinewebfonts.com/icon </metadata>
<g><g><g><path fill="#000000" d="M63.4,25.2c-3.1,0.6-7.9,2.5-11.3,4.7c-5.7,3.8-10.7,11.3-12.1,18c-0.6,2.7-0.7,13.1-0.7,68.2c0,71.6-0.2,66.9,2.9,69.3c3.3,2.5,7.7,1.9,10.3-1.5l1.2-1.6l0.2-64.4c0.2-62.8,0.2-64.4,1.2-66.6c2.1-5,6.5-9.2,11.6-10.9c2.9-1,3.1-1,75.7-1c80.2,0,75.2-0.2,80,2.9c3,1.9,5.3,4.6,7,8.2l1.4,3v74.5v74.5l-1.7,3.5c-2.1,4.2-4.7,6.8-9,8.8l-3.1,1.5l-82.9,0.1c-92.6,0.1-86.3,0.3-93.5-3.2c-7.4-3.7-13.1-10.8-15.2-19.1c-0.9-3.4-0.9-5.2-0.9-31.9c0-31.5,0.1-30.3-3.1-32.7c-1.3-1-2.1-1.2-4.3-1.2c-2.9,0-4.3,0.8-6.1,3.2c-1,1.2-1,1.7-1,31.8v30.5l1.2,4.5c2,7.4,5.4,13.5,10.6,19c5.5,5.9,12.5,10.1,20.7,12.5l4.3,1.3l85.8,0.1c77,0.1,86.1,0,89.4-0.6c9.2-1.9,16.7-7.7,20.8-16.1c3.1-6.5,3-2.1,3-86.5c0-84.5,0.2-79.9-3-86.5c-4-8.3-11.9-14.4-20.8-16.1c-2.9-0.6-15.9-0.6-79.8-0.6C100.1,24.8,64.8,25,63.4,25.2z"/><path fill="#000000" d="M83,69.5c-2.9,0.7-7.1,3.1-9.1,5.3c-1,1.1-2.5,3.4-3.3,5.1L69.2,83L69,96.9c-0.1,9.6,0,14.6,0.4,16.4c1.2,5.3,4.5,9.8,8.8,12.2c4.5,2.4,5.6,2.6,25.5,2.6c20.4,0,20.4,0,22.8-3c2.4-3.2,1.7-7.7-1.6-10.2l-1.6-1.2l-17.4-0.2C89.1,113,88.3,113,87.1,112c-3.1-2.4-3.2-2.4-3.2-13.6s0-11.2,3.2-13.6c1.2-1,1.8-1,26.1-1s24.9,0,26.1,1c0.7,0.5,1.7,1.5,2.2,2.2c0.9,1.2,1,2,1.2,18.6c0.2,12.8,0.4,17.7,0.8,18.4c0.3,0.6,1.3,1.6,2.3,2.3c2.4,1.8,6.2,1.8,8.5,0c3.2-2.4,3.2-2.2,3-24L157.2,83l-1.7-3.5c-2.1-4.2-4.7-6.8-9-8.8l-3.1-1.5l-29.3-0.1C97.4,69.1,84.1,69.3,83,69.5z"/><path fill="#000000" d="M176.6,84.4c-4.3,1.8-5.6,7.4-2.8,11.1c2.2,3,2.5,3,20.5,3c18.1,0,18.3,0,20.7-3.1c1-1.3,1.2-2.1,1.2-4.2c0-2.1-0.2-2.9-1.2-4.2c-2.4-3.1-2.5-3.1-20.8-3.1C181.8,83.8,177.7,83.9,176.6,84.4z"/><path fill="#000000" d="M14.2,99.1c-2.1,0.9-4,3.6-4.2,6c-0.6,5.4,5.3,9.7,10.2,7.4c5.1-2.4,5.9-9.1,1.3-12.5C19.7,98.6,16.4,98.2,14.2,99.1z"/><path fill="#000000" d="M176.6,113.9c-4.3,1.8-5.6,7.4-2.8,11.1c2.2,3,2.5,3,20.5,3c18.1,0,18.3,0,20.7-3.1c1-1.3,1.2-2.1,1.2-4.2c0-2.1-0.2-2.9-1.2-4.2c-2.4-3.1-2.5-3.1-20.8-3.1C181.8,113.3,177.7,113.4,176.6,113.9z"/><path fill="#000000" d="M73.3,143.4c-4.3,1.8-5.6,7.4-2.8,11.1c2.2,2.9,2.5,3,20.5,3c18.1,0,18.3,0,20.7-3.1c1-1.3,1.2-2.1,1.2-4.2c0-2.1-0.2-2.9-1.2-4.2c-2.4-3.1-2.5-3.1-20.7-3.1C78.5,142.8,74.4,142.9,73.3,143.4z"/><path fill="#000000" d="M132.3,143.4c-4.3,1.8-5.6,7.4-2.8,11.1c2.4,3.1,0.2,3,42.7,3c42.7,0,40.3,0.2,42.8-3.1c1-1.3,1.2-2.1,1.2-4.2c0-2.1-0.2-2.9-1.2-4.2c-2.5-3.3-0.1-3.1-42.9-3.1C141.2,142.8,133.4,142.9,132.3,143.4z"/><path fill="#000000" d="M73.3,172.9c-4.3,1.8-5.6,7.4-2.8,11.1c2.2,3,2.5,3,20.5,3c18.1,0,18.3,0,20.7-3.1c1-1.3,1.2-2.1,1.2-4.2c0-2.1-0.2-2.9-1.2-4.2c-2.4-3.1-2.5-3.1-20.7-3.1C78.5,172.3,74.4,172.5,73.3,172.9z"/><path fill="#000000" d="M132.3,172.9c-4.3,1.8-5.7,7.7-2.8,11.3c2.5,3,0.4,2.8,42.7,2.8c42.7,0,40.3,0.2,42.8-3.1c1-1.3,1.2-2.1,1.2-4.2c0-2.1-0.2-2.9-1.2-4.2c-2.5-3.3-0.1-3.1-42.9-3.1C141.2,172.3,133.4,172.4,132.3,172.9z"/></g></g></g>
</svg>