<?xml version="1.0" encoding="utf-8"?>
<!-- Svg Vector Icons : http://www.onlinewebfonts.com/icon -->
<!DOCTYPE svg PUBLIC "-//W3C//DTD SVG 1.1//EN" "http://www.w3.org/Graphics/SVG/1.1/DTD/svg11.dtd">
<svg version="1.1" xmlns="http://www.w3.org/2000/svg" xmlns:xlink="http://www.w3.org/1999/xlink" x="0px" y="0px" viewBox="0 0 256 256" enable-background="new 0 0 256 256" xml:space="preserve">
<metadata> Svg Vector Icons : http://www.onlinewebfonts.com/icon </metadata>
<g><g><g><path fill="#000000" d="M187,91.7L187,91.7C218.8,78.1,223.3,10,223.3,10H187h-4.5H69H32.7c0,0,4.5,68.1,36.3,81.7l0,0c0,30,24.5,54.5,54.5,54.5v36.3H87.2v27.2H59.9V246h136.2v-36.3h-27.2v-27.2h-36.3v-36.3C162.5,146.2,187,121.6,187,91.7z M187,19.1h26.3c0,0-5.4,47.2-26.3,62.6V19.1L187,19.1z M69,81.7C48.1,66.3,42.7,19.1,42.7,19.1H69V81.7z M187,218.8v18.2H69v-18.2H187z M159.8,191.5v18.2H96.2v-18.2H159.8z M132.5,137.1h-9.1c-25.4,0-45.4-20-45.4-45.4V19.1h99.8v72.6C177.9,117.1,158,137.1,132.5,137.1z"/></g><g></g><g></g><g></g><g></g><g></g><g></g><g></g><g></g><g></g><g></g><g></g><g></g><g></g><g></g><g></g></g></g>
</svg>