<svg xmlns="http://www.w3.org/2000/svg" xmlns:xlink="http://www.w3.org/1999/xlink" version="1.1" width="256" height="256" viewBox="0 0 256 256" xml:space="preserve">

<defs>
</defs>
<g style="stroke: none; stroke-width: 0; stroke-dasharray: none; stroke-linecap: butt; stroke-linejoin: miter; stroke-miterlimit: 10; fill: none; fill-rule: nonzero; opacity: 1;" transform="translate(1.4065934065934016 1.4065934065934016) scale(2.81 2.81)" >
	<path d="M 51.454 72.582 c -0.944 0 -23.188 -0.019 -29.074 -1.596 c -3.834 -1.024 -6.853 -4.043 -7.877 -7.877 c -0.285 -1.067 0.349 -2.164 1.416 -2.449 c 1.065 -0.285 2.163 0.35 2.448 1.416 c 0.656 2.456 2.59 4.39 5.047 5.046 c 4.467 1.197 21.755 1.46 28.04 1.46 c 6.284 0 23.572 -0.263 28.038 -1.459 c 2.458 -0.657 4.392 -2.591 5.049 -5.047 C 85.982 56.696 86 45.116 86 45 s -0.018 -11.697 -1.459 -17.075 c -0.657 -2.457 -2.591 -4.391 -5.048 -5.047 c -4.468 -1.198 -21.755 -1.46 -28.039 -1.46 c -6.285 0 -23.573 0.263 -28.039 1.459 c -2.458 0.657 -4.392 2.59 -5.048 5.047 c -0.285 1.068 -1.384 1.701 -2.448 1.416 c -1.067 -0.285 -1.701 -1.381 -1.416 -2.448 c 1.024 -3.835 4.043 -6.854 7.878 -7.878 c 5.884 -1.578 28.128 -1.596 29.073 -1.596 s 23.188 0.018 29.073 1.596 c 3.833 1.024 6.853 4.042 7.877 7.877 C 89.981 32.776 90 44.503 90 45 s -0.019 12.224 -1.596 18.11 c -1.024 3.833 -4.043 6.852 -7.878 7.876 C 74.642 72.563 52.398 72.582 51.454 72.582 z" style="stroke: none; stroke-width: 1; stroke-dasharray: none; stroke-linecap: butt; stroke-linejoin: miter; stroke-miterlimit: 10; fill: rgb(0,0,0); fill-rule: nonzero; opacity: 1;" transform=" matrix(1 0 0 1 0 0) " stroke-linecap="round" />
	<path d="M 45.769 56.431 l 16.192 -9.35 c 1.602 -0.925 1.602 -3.238 0 -4.163 l -16.192 -9.35 c -1.603 -0.925 -3.606 0.231 -3.606 2.082 V 54.35 C 42.163 56.2 44.167 57.357 45.769 56.431 z" style="stroke: none; stroke-width: 1; stroke-dasharray: none; stroke-linecap: butt; stroke-linejoin: miter; stroke-miterlimit: 10; fill: rgb(0,0,0); fill-rule: nonzero; opacity: 1;" transform=" matrix(1 0 0 1 0 0) " stroke-linecap="round" />
	<path d="M 34.646 47 H 2 c -1.104 0 -2 -0.896 -2 -2 s 0.896 -2 2 -2 h 32.646 c 1.104 0 2 0.896 2 2 S 35.75 47 34.646 47 z" style="stroke: none; stroke-width: 1; stroke-dasharray: none; stroke-linecap: butt; stroke-linejoin: miter; stroke-miterlimit: 10; fill: rgb(0,0,0); fill-rule: nonzero; opacity: 1;" transform=" matrix(1 0 0 1 0 0) " stroke-linecap="round" />
	<path d="M 34.646 38.878 H 10.122 c -1.104 0 -2 -0.896 -2 -2 s 0.896 -2 2 -2 h 24.524 c 1.104 0 2 0.896 2 2 S 35.75 38.878 34.646 38.878 z" style="stroke: none; stroke-width: 1; stroke-dasharray: none; stroke-linecap: butt; stroke-linejoin: miter; stroke-miterlimit: 10; fill: rgb(0,0,0); fill-rule: nonzero; opacity: 1;" transform=" matrix(1 0 0 1 0 0) " stroke-linecap="round" />
	<path d="M 34.646 55.121 H 10.122 c -1.104 0 -2 -0.896 -2 -2 s 0.896 -2 2 -2 h 24.524 c 1.104 0 2 0.896 2 2 S 35.75 55.121 34.646 55.121 z" style="stroke: none; stroke-width: 1; stroke-dasharray: none; stroke-linecap: butt; stroke-linejoin: miter; stroke-miterlimit: 10; fill: rgb(0,0,0); fill-rule: nonzero; opacity: 1;" transform=" matrix(1 0 0 1 0 0) " stroke-linecap="round" />
</g>
</svg>