<?xml version="1.0" encoding="utf-8"?>
<!-- Svg Vector Icons : http://www.onlinewebfonts.com/icon -->
<!DOCTYPE svg PUBLIC "-//W3C//DTD SVG 1.1//EN" "http://www.w3.org/Graphics/SVG/1.1/DTD/svg11.dtd">
<svg version="1.1" xmlns="http://www.w3.org/2000/svg" xmlns:xlink="http://www.w3.org/1999/xlink" x="0px" y="0px" viewBox="0 0 256 256" enable-background="new 0 0 256 256" xml:space="preserve">
<metadata> Svg Vector Icons : http://www.onlinewebfonts.com/icon </metadata>
<g><g><g><path fill="#000000" d="M125.8,11c-0.7,1-0.6,2.2,0.8,6.9c4.2,13.9,0.7,42.1-6.1,49.5c-3.8,4-6,1.5-8.3-9.5c-2.1-10.4-4.9-16-10.3-21.1c-7.3-6.9-12.2-7.9-11.8-2.4C91.5,53,91.4,53.9,87.6,68c-3,11.6-3.5,14.5-3.8,22.8c-0.4,10.2,0.2,14.7,3.3,24.8c1.8,6.1,1.8,7.5-0.1,7.5c-1.6,0-3.2-2.8-8.2-15.3C73.3,94.2,70.1,89,65.4,86.1c-3.8-2.4-6.2-2.8-7.6-1.1C57,85.9,57.1,87,58.2,91c1.2,4.1,1.4,7.5,1.4,19.1c-0.1,11.8-0.4,16.9-2.5,31c-2.8,20.3-3.5,33.2-2.4,41.8c4.4,31.1,23.5,53.2,53.2,61.1c6.4,1.8,8.5,1.9,20.1,1.9c11.7,0,13.7-0.1,20.3-1.9c28.5-7.6,47.5-28.6,52.6-58.5c1.4-8.4,1.4-13.2-0.1-29.5c-1-11.2-1.1-14.1-0.3-19.2c1.3-8.6,1.3-10.2-0.1-11.2c-1-0.6-2.3-0.3-6,1.6c-5.8,2.9-12.9,9.2-17.6,16c-2,2.8-3.6,4.7-3.6,4.2s1.5-6.4,3.3-13.2c4.2-15.7,5.5-23.7,5.5-32.6c0-10.9-2.7-19.7-7.8-25.9c-1.8-2.1-5-3.1-5.8-1.8c-0.2,0.4-0.9,3.8-1.6,7.6c-2,11.7-7.4,20.7-12.4,20.7c-4,0-4.4-5-2-22.6c1.8-13.3,1.7-31.1-0.4-38.4c-3-10.7-9.5-20.6-18.7-28.1C129.1,9.7,127.2,9.2,125.8,11z M142.8,33.3c5.5,11.2,6.6,25.2,3.6,46.9c-2.6,19-1.6,24.8,4.8,27.2c7.4,2.8,16-5.5,20.2-19.4l1.2-3.8l1,2.5c2.7,6.3,3.1,15.9,1.3,26.2c-0.6,3.5-2.8,13.1-4.8,21.4c-5.2,20.5-5.7,30.6-1.8,32.2c2.1,0.7,3.2-0.6,6.1-7.3c3.8-8.6,8.8-16,14.3-20.9c2.5-2.2,4.8-4.1,5.2-4.1s0.4,2.4,0.1,5.3c-0.2,3.3,0.1,10.7,0.8,18.7c0.8,8.1,1.1,15.8,0.8,19.7c-1.7,24.8-13.3,44-33,54.5c-13.6,7.3-31,9.9-47.7,7.2c-29.4-4.7-49.2-24.6-54-54.2c-1.6-9.7-1-21.9,2.1-43.4c2.1-14.7,2.4-19.1,2.4-32.3c0-8.4,0.2-15.1,0.6-14.9c1,0.6,4.1,7.3,7.5,16c5.2,13.2,7.2,16.6,11.4,17.8c2.4,0.7,6.2-0.7,8.6-3.3l2.1-2.2l-2.3-7.2c-3.4-10.5-4.1-14.9-3.6-25.4c0.3-7.5,0.9-11,3-18.5c3.7-13.3,4.2-16.2,4.2-24.5V40l1.9,1.8c3.6,3.4,5.5,7.8,7.4,16.9c2,10.3,3.1,12.8,6.4,14.8c6.4,3.9,12.9-0.7,17.2-12.2c3.4-9,4.3-14.6,4.4-27.7l0.1-12l3.1,3.5C139.1,27.1,141.5,30.7,142.8,33.3z"/><path fill="#000000" d="M118.9,103.4c-1,1-2.7,3.2-3.6,5c-1.6,3-1.7,4.1-1.7,14.7c0.1,6.3,0.2,16,0.4,21.4c0.4,10.7,0,12.3-3.3,14.5c-1.6,1-2,1-5-0.3c-1.8-0.8-5.3-3.3-7.8-5.6c-4.6-4.2-6.1-4.9-7.5-3.3c-1.4,1.8-2.5,9.1-2.9,19.1c-1.7,43.3,18.8,68.5,50.4,61.7c10.7-2.3,18-7.9,22.8-17.4c4-7.8,5.3-14.6,5.3-28c0.1-13.5-0.1-13.8-6.1-11.3c-7.2,3.1-12.1,1.7-14.4-4.1c-2.6-6.7-2.3-14,1.5-29.5c1-4.5,1.7-8.7,1.5-9.4c-0.7-1.8-2.8-1.6-6.5,0.6c-6.1,3.5-10.3,1.9-13.2-5c-1.9-4.5-3.6-13.3-3.7-19.1C125,101.5,122.6,99.9,118.9,103.4z M124.1,130.4c3,5.8,6.9,8.4,12.8,8.4c3.9-0.1,4.4,0.1,4.1,1.3c-2.6,8.2-3.3,23.7-1.5,30.2c2.6,8.7,10.3,12.9,18.8,10.5l2.5-0.7l-0.4,8.6c-0.5,9.5-1.8,15.5-4.6,21.2c-5.3,11.1-16.3,16.7-30.5,15.7c-14.6-1.1-25.2-11.8-29.9-30.1c-1.7-6.9-2.7-24.5-1.8-32.8l0.5-4.8l3.9,3c11.4,8.6,20.5,5,22.1-8.9c0.3-2.2,0-10.1-0.6-17.4c-0.6-7.3-0.9-15-0.7-17l0.4-3.7l1.4,6.3C121.5,123.6,122.9,128.2,124.1,130.4z"/></g></g></g>
</svg>