<svg xmlns="http://www.w3.org/2000/svg" xmlns:xlink="http://www.w3.org/1999/xlink" version="1.1" width="256" height="256" viewBox="0 0 256 256" xml:space="preserve">

<defs>
</defs>
<g style="stroke: none; stroke-width: 0; stroke-dasharray: none; stroke-linecap: butt; stroke-linejoin: miter; stroke-miterlimit: 10; fill: none; fill-rule: nonzero; opacity: 1;" transform="translate(1.4065934065934016 1.4065934065934016) scale(2.81 2.81)" >
	<path d="M 70.4 64.801 c -0.222 0 -0.444 -0.073 -0.63 -0.224 L 49.108 47.776 c -0.233 -0.19 -0.369 -0.476 -0.369 -0.776 V 16.682 c 0 -0.552 0.447 -1 1 -1 s 1 0.448 1 1 v 29.842 l 20.293 16.5 c 0.429 0.349 0.493 0.979 0.145 1.407 C 70.979 64.675 70.691 64.801 70.4 64.801 z" style="stroke: none; stroke-width: 1; stroke-dasharray: none; stroke-linecap: butt; stroke-linejoin: miter; stroke-miterlimit: 10; fill: rgb(0,0,0); fill-rule: nonzero; opacity: 1;" transform=" matrix(1 0 0 1 0 0) " stroke-linecap="round" />
	<path d="M 10.479 39.432 c -0.256 0 -0.512 -0.098 -0.707 -0.293 L 0.293 29.66 c -0.391 -0.391 -0.391 -1.023 0 -1.414 s 1.023 -0.391 1.414 0 l 8.771 8.771 l 8.771 -8.771 c 0.391 -0.391 1.023 -0.391 1.414 0 s 0.391 1.023 0 1.414 l -9.479 9.479 C 10.99 39.334 10.734 39.432 10.479 39.432 z" style="stroke: none; stroke-width: 1; stroke-dasharray: none; stroke-linecap: butt; stroke-linejoin: miter; stroke-miterlimit: 10; fill: rgb(0,0,0); fill-rule: nonzero; opacity: 1;" transform=" matrix(1 0 0 1 0 0) " stroke-linecap="round" />
	<path d="M 68.978 86.261 H 30.5 c -11.592 0 -21.022 -9.431 -21.022 -21.022 V 50.949 c 0 -0.553 0.448 -1 1 -1 s 1 0.447 1 1 v 14.289 c 0 10.489 8.533 19.022 19.022 19.022 h 38.477 C 79.467 84.261 88 75.728 88 65.238 V 26.761 c 0 -10.489 -8.533 -19.022 -19.022 -19.022 H 30.5 c -10.489 0 -19.022 8.533 -19.022 19.022 v 11.67 c 0 0.552 -0.448 1 -1 1 s -1 -0.448 -1 -1 v -11.67 c 0 -11.592 9.43 -21.022 21.022 -21.022 h 38.477 C 80.569 5.739 90 15.169 90 26.761 v 38.477 C 90 76.83 80.569 86.261 68.978 86.261 z" style="stroke: none; stroke-width: 1; stroke-dasharray: none; stroke-linecap: butt; stroke-linejoin: miter; stroke-miterlimit: 10; fill: rgb(0,0,0); fill-rule: nonzero; opacity: 1;" transform=" matrix(1 0 0 1 0 0) " stroke-linecap="round" />
</g>
</svg>