<?xml version="1.0" encoding="utf-8"?>
<!-- Generator: Adobe Illustrator 26.0.1, SVG Export Plug-In . SVG Version: 6.00 Build 0)  -->
<svg version="1.1" id="Layer_1" xmlns="http://www.w3.org/2000/svg" xmlns:xlink="http://www.w3.org/1999/xlink" x="0px" y="0px"
	 viewBox="0 0 1200 226" style="enable-background:new 0 0 1200 226;" xml:space="preserve">
<style type="text/css">
	.st0{fill:#FF0000;}
	.st1{fill:#FFFFFF;}
	.st2{enable-background:new    ;}
</style>
<g id="g7433">
	<path id="path7429" class="st0" d="M348.2,44c-3.5-12.6-13.6-22.5-26.4-25.9c-23.5-6.3-117.5-6.3-117.5-6.3s-94.1,0-117.5,6.2
		c-12.7,3.4-23,13.6-26.4,26.3C54,67.1,54,115,54,115s0,48.1,6.2,70.9c3.5,12.6,13.6,22.5,26.4,25.9c23.8,6.3,117.5,6.3,117.5,6.3
		s94.1,0,117.5-6.2c12.9-3.4,23-13.3,26.4-25.9c6.2-23.1,6.2-70.9,6.2-70.9S354.6,67,348.2,44L348.2,44z"/>
	<path id="polygon7431" class="st1" d="M177,69.8v90.1l71.3-45.1L177,69.8z"/>
</g>
<g id="g7451">
	<g class="st2">
		<path d="M410.8,206.3V21h25.4l33.4,106h0.5V21h24.7v185.3h-23.9L436,90.5h-0.5v115.7L410.8,206.3L410.8,206.3z"/>
		<path d="M518.7,117c0-30.3,10.1-51.3,38.5-51.3s38.5,21.1,38.5,51.3v40.5c0,30.3-10.1,51.3-38.5,51.3s-38.5-21.1-38.5-51.3V117z
			 M570.9,111.8c0-15.9-4.8-22.5-13.7-22.5c-8.8,0-13.7,6.7-13.7,22.5v50.8c0,15.9,4.8,22.5,13.7,22.5c8.8,0,13.7-6.7,13.7-22.5
			V111.8z"/>
		<path d="M667.5,206.3v-107c0-6.9-3.7-10.1-8.7-10.1c-5.3,0-10.1,3.8-15.9,8.7v108.3h-24.7v-138h23.4v13.9
			C652,71.8,657.3,65.7,669,65.7c12.4,0,16.3,5.1,21.6,16.4c11.9-13.3,18.6-16.4,27.6-16.4c15.5,0,23.2,11,23.2,29v111.6h-24.7v-107
			c0-6.9-4-10.1-8.8-10.1c-5.3,0-10.1,3.8-15.7,8.7v108.3L667.5,206.3L667.5,206.3L667.5,206.3z"/>
		<path d="M765.8,47.1V21h24.7v26.1H765.8z M765.8,206.3v-138h24.7v138H765.8L765.8,206.3z"/>
		<path d="M831.9,48.7h-26.5V21h80.4v27.7h-26.5v157.5h-27.4V48.7L831.9,48.7z"/>
		<path d="M966.7,68.2v138h-23.4v-13.9c-10.4,10.3-15.7,16.4-30.1,16.4c-13,0-20.8-11-20.8-29V68.2h24.7v107
			c0,6.9,3.6,10.1,8.8,10.1c5.3,0,10.1-3.8,15.9-8.7V68.2H966.7z"/>
		<path d="M990.6,206.3V21h24.7v59.1c9.8-9.2,14.8-14.4,25.6-14.4c15.5,0,25.2,13.3,25.2,38.4v66.2c0,25.1-9.8,38.4-25.2,38.4
			c-12.4,0-18.3-4.9-26.5-16.9h-0.5v14.4h-23.4L990.6,206.3L990.6,206.3z M1015.4,178c4.8,4.1,9.3,7.2,14.1,7.2
			c6.7,0,11.9-4.1,11.9-22.3v-51.3c0-18.2-5.3-22.3-11.9-22.3c-4.8,0-9.3,3.1-14.1,7.2V178z"/>
		<path d="M1164.3,142.6h-52.2v20c0,15.9,4.8,22.5,13.7,22.5c8.8,0,13.7-6.7,13.7-22.5v-3.1h24.7c-0.5,29.2-10.9,49.2-38.5,49.2
			c-28.3,0-38.5-21.1-38.5-51.3v-40.5c0-30.3,10.1-51.3,38.5-51.3s38.5,21.1,38.5,51.3L1164.3,142.6L1164.3,142.6z M1139.6,119v-7.2
			c0-15.9-4.8-22.5-13.7-22.5c-8.8,0-13.7,6.7-13.7,22.5v7.2H1139.6z"/>
	</g>
</g>
</svg>
